/* XPM */
static char *d137248588fa4004c772d6e7329ade4edAhyMRYUtDLyLNMJ[] = {
/* columns rows colors chars-per-pixel */
"64 64 115 2 ",
"   c #202020",
".  c #2C2C2C",
"X  c #202830",
"o  c gray22",
"O  c #400000",
"+  c #4C0000",
"@  c #580000",
"#  c #5B0707",
"$  c #561212",
"%  c #640000",
"&  c #700000",
"*  c #710404",
"=  c #7C0000",
"-  c #7D0606",
";  c #730909",
":  c #740B0B",
">  c #750D0D",
",  c #611515",
"<  c #6B1111",
"1  c #6C1414",
"2  c #6F1B1B",
"3  c #761111",
"4  c #771515",
"5  c #781717",
"6  c #7A1B1B",
"7  c #7B1F1F",
"8  c #543C1C",
"9  c #7C2222",
"0  c #7A2525",
"q  c #7F2727",
"w  c #585400",
"e  c #706C00",
"r  c #426D29",
"t  c #45712B",
"y  c #49772E",
"u  c gray25",
"i  c #484848",
"p  c gray33",
"a  c #774646",
"s  c #785151",
"d  c #646464",
"f  c gray44",
"g  c #7C7C7C",
"h  c #880000",
"j  c #800E0E",
"k  c #8A0B0B",
"l  c #980000",
"z  c #980606",
"x  c #9B1313",
"c  c #9C1F1F",
"v  c #A40000",
"b  c #B00000",
"n  c #BC0000",
"m  c #992A31",
"M  c #B03139",
"N  c #C80000",
"B  c #D40000",
"V  c #E00000",
"C  c #EC0000",
"Z  c #FC0000",
"A  c #FC2020",
"S  c #BB3F4A",
"D  c #884141",
"F  c #A86840",
"G  c #827E7E",
"H  c #DD4A57",
"J  c #568C36",
"K  c #588F37",
"L  c #66A540",
"P  c #848400",
"I  c #9C9C00",
"U  c #CCC400",
"Y  c #E4D800",
"T  c #FCF400",
"R  c #83BF5F",
"E  c #E88C58",
"W  c #A7EE7D",
"Q  c #808080",
"!  c #898989",
"~  c gray55",
"^  c #999696",
"/  c #989898",
"(  c #9F9F9F",
")  c #A2A2A2",
"_  c gray65",
"`  c #A8A7A7",
"'  c gray66",
"]  c #AAACAA",
"[  c #ACACAB",
"{  c #ACABAC",
"}  c #ABADAC",
"|  c #AEAEAE",
" . c #B1AFAF",
".. c #AFB0AF",
"X. c #B0B0AF",
"o. c #AFAFB0",
"O. c #B0AFB0",
"+. c #AFB0B0",
"@. c gray70",
"#. c #B4B3B3",
"$. c #B3B4B3",
"%. c #B4B4B3",
"&. c #B3B3B4",
"*. c #B4B3B4",
"=. c #B3B4B4",
"-. c #B4B4B4",
";. c #B8B6B7",
":. c #B8B8B7",
">. c #B8B7B8",
",. c #BBBBBB",
"<. c #BCBCBC",
"1. c #C0C0C0",
"2. c #CACACA",
"3. c gray81",
"4. c #D0D0D0",
/* pixels */
"o o o o o o o o o o o o o o o o o o o o o o o o o o o o o o o o o o o o o o o o o o o o o o o o o o o o o o o o o o o o o o o o ",
"p o p i i i i i p i i i i i i p i o i i i i i i i p p p p p p i i i i i i i i i p p p p p p p i i i i o o o i i p p i i i i i o ",
"o C C B B B B B B B B B v i i p C C B B B B B B B B B B B B B B B B B B v i o p C C C C V V V V V V B B B B B N N N N n n n v i ",
"i T N b b B h v B h N v % . i p C n h n h n h n = n l n l n = n = n N v & . i o B v N b N b b N & N = N b N h b v = N l N v T . ",
"Y U P -.-.-.-.-.-.-.-.-.-.-.-.-.-.-.-.-.-.-.-.-.-.-.-.-.-.-.-.-.-.-.-.-.-.-.-.-.-.-.-.-.-.-.-.-.-.-.-.-.-.-.-.-.-.-.-.-.-.U U e ",
"F I w f f g g g g g g g g g g g g g g g g g g g g g g g g g g g g g g g g g g g g g g g g g g g g g g g g g g g g g f f f e E w ",
"i 8 v g g g g / / / / / / / / / / / / / / / / / / / / / / / / / / / / / / / / / / / / / / / / / / / / / / / / / / g f g g @ F . ",
"i n = / g A v O O p & & & & & & & & & * * & * * * & ; : 7 q > 6 9 D D 5 & & * & * & & & * & & * * * v b Z V g O O O g 1.f @ O . ",
"i n v ' g v 1./ f O g ' 1.2.<.<.-.@.-.@.-.@.@.-.@.@.@.-.,.-.@.-.-.,.-.@.-.@.-.@.@.@.@.@.@.@.@.@.,.,.<.1.1.g O g f / A g f @ O . ",
"i = % -./ O / 1./ g ~ / ' | ' | -.,.@.| ,.-.,.-.-.-.,.@.| -.@.,.@.| | | -.@.<.-.,.-.,.-.,.-.-.,.-.@.,.-.' ' ' f ' 4.v f g O O . ",
"i i . 4.' O / ' 1./ Q ! _ | | | | | | @.| | | | @.| | | @.| | | | @.| @.@.-.,.-.&.| @.| | | @.| | | | | ' / / ' 4.g O g /     . ",
"p o o 4.-.p f / -.<.' | @.@.@.@.| -.@.-.@.,.| | @.@.| | @.@.,.| | @.@.@.*.@.@.@.@.@.@.| | | @.@.| @.@.@.| / ' 4.1.d p ~ '   . . ",
"C B B -.4.O Q _ -.@.| | @.@.@.@.@.| | | | | -.<.@.| -.<.@.| @.-.<.-.@.@.@.-.-.O.@.@.@.@.@.,.@.| @.-.@.| @.| <.1.' g O / ' @ @ B ",
"b h h -.4.& ( ' | @.@.@.| @.| @.@.| | | | | | | | | ' ' | | ' ' @.@.@.@.@.-.@.@.@.@.@.| | | @.' ' +.O.@.,.| | ' ~ g O ' -.@ @ b ",
"h v h -.4.b | @.| @.@.@.' ' | | ' | | | | @.| | ' | ' @.' ' ' | @.@.#.@.-.-.@.@.@.@.@.@.-.| ' ' } ..@.#.@.| @._ g ~ & ' -.@ @ l ",
"& v v -.-.l @.@.@.| ' | @.| @.@.-.@.| | @.| | ' | ' | | | ' ' | @.| @.@.| | @.@.@. .| | | | | ' | +.| @.@.| @.| ! ~ & ' -.@ @ = ",
"v h h -.-.h | | ,.-.@.| | | @.@.&.-.-.-.+... .| @.@.| | | @.@.@.@.| ' ' | | | | -.@.| | | | @.@.@.@.| ' ' | @.| @.~ & ' -.@ @ = ",
"& v % -.-.& | | | | | | @.@.| | @.-.-.-.@.@.@.@.@.@.| ..| @.@.@.| | | | | @.@. .%.@.@.X.+.@.-.@.@.| | | @.| | | ' ( & -.-.@ @ h ",
"& b % -.-.& -.@.-.-.@.@.| @.@.@.@.@.@.@.| @.@.@.@.@.| | | o.o.| | | | | | | @.| | X. .@.| X.@.| @...| | @.| ' ' ' @.3 -.-.@ @ & ",
"O + + -.-.& @.| | | @.@.@.@.-.-.-.@.@.@.O.@.@.@.| | | @.' | o. .| | ..| | | | { | | | @.@.@.@.@.@.| @.@.@.@.%.-.@.| & -.-.O @ O ",
". . . -.-.& | | -.,.#.&.@.@.-.-.-.@.@.@.@.+.,.@.@.@.@.@.-.o.@.@.@.@.| @.@.| | | -.-.-.@.@.@.@.-.-.-.@.@.+.@.@.| | | 3 -.-.    . ",
"p p i -.-.& | | | | +.@.@.-.-.@.X...@.@.+.@.| | @.@.@.@.-.@.@.@.@.@.| @.@...| | %.%.-.@.@.X.%.| :.=.=.@.' | | | | ' * -.-.  . . ",
"p C C 1.1.= @.@.| ,.,.-.-.-.-.@.@.@.@.@.@.X.| | | | @.@.@.O.@.@.@.@.@.@.@.@.| | @.#.@.$.@.| @.@.@.@.@.$.@.@.| | ' @.4 -.-.@ @ . ",
"p C h 4.4.l @.| | | -.-.-.-.@.@.@.@.@.@.@.@.| | O.| | -.@.y J J @.@.-.-.-.@.@.@.-.%.@.%.-.-.-.| @.@.@.@.@.@.| | ' ' - -.-.@ O . ",
"o C b 1.1.h | @.| -.-.@.@.@.@.] | | X.| @.@. .o.| o.| | y J L W S S S -.-.@.@.@.@.-.-.*.-.-.&.@.@.| O.@.@...| ' | @.j -.-.@ O . ",
"i n % -.-.= | | -.-.-.@.O.@.-.-.@.| @.@.-.*.X X @.@.@.y J L R H H H H S S m @.@.@.@.@.@.@.@.@.@.| | | | | | | | ' ' k -.-.@ O . ",
"i n b -.-.& | | | @.@.@.| ,.-.-.-.-.-.| $.=.X X &.@.y J K W H H X H H H H H m m @.@.@.@.@.@.| | | | | | @.| ' | | @.c 1.1.@ O . ",
"p n & ' ' & @.@.| @.@.@.-.>.;.-.-.-.-.@.| | O.@.| @.y J L W H M H H H M M H H H m ..X.+.@.o.| | | | | X.| @.@.| ' ' z 4.4.@ O . ",
"i N v ' ' % @.@.@.@.@.@.@.-.@.-.-.-.-.@.O.@.| @.@.y J K L W H M H H H X X H H H H S @.' o.@.| | | | |  .| @.| ' ' @.x 1.1.@ O . ",
"i v l / / + ' @.@.| | -.$.-.-.-.-.-.@.@.@.@.@.@.@.t J L W W H X H H H X &.H H H H H S @.@.@.@.@.| @.@.@.@.@.| ' ' | k 1.1.@ O . ",
"i i o ' ' @ ' ' | | O.@.&.-.-.-.<.-.@.@.@.-.@.@.@.y J L W W H H H H H H H H H H H H S @.@.@.@.@...@.@.@.@.@.X.@.| ' = -.-.    . ",
"p p p ' ' % @.| | | @.@.@.@.#.@.@.| @.@.@.@.@.@.| r J L W W H H H H H H H H H H H H S @.@.@.@.@.@.@.@.@...| @.| | @.5 -.-.  . . ",
"n n n -.-.& @.@.| @.@.@.X.| @.@.@.@.@.@.@.| O.@.@.r J L W W M H H H H H H H H H H H S | | @.@.@.@.@.@.@.| @.O.| ' ' > -.-.@ @ n ",
"v b v -.-.& | @.| @.@.@.@.@.@.@.@.@.@.@.@.| @.@.@.y J L W W M H H H X H H H H H H H S X.| @.@.@.@.| X.@.| @.@.| | @.2 ' ' @ @ v ",
"v = h -.-.& @.@.@.@.@.@.| | X.@.@.-.-.@.@.@.@.@.@.t J L W W M X H H X H H H H H H H S -.-.-.@.@.@.+.[ @.@.-.,.) ( ' , / / @ @ & ",
"h = v -.-.& @.@.@.@.-.@.@.@.@.$.-.-.-.@.@.-.-.%.@.y J L L W H H H H H H H H H H H m -.=.,.@.@.@.@.@.$.-.-.-.,.| ( @.$ ~ ~ @ @ & ",
"v h = -.-.& -.-.@.| @.@.@.@.@.@.-.-.@.@.@.=.-.%.@.@.t J L W H H H H H X X H H H S @.@.@...| | @.@.$.@.-.-.-.-.-.-.| # / / @ @ h ",
"v h = -.-.= @.@.@.@.@.@.@.@.#.@.$.-.@.@.%.@.X X @.@.y J L W H M X H H X @.H S S @.@.@...| | @.@.@.@.@.@.@.| @.| ' ' < / / @ @ & ",
"& & h -.-.= @.| %.| @.@.@.@.@.@.@.-.@.@.@.@.X X @.@.@.y J L W H H H M S S S @.@.@.@.@.o.| | | | | @...| | | | | ' @.1 ' ' @ @ & ",
"O O + -.-.h @.' | @.@.@.@.| -.@.$.=.@.@.@.@.@.| | @.@.@.r J L W S S S @.$.@.@.@.@.@.@.@.| | ..@.@.| | | | | | | @.| % -.-.@ @ O ",
". . . 1.1.h <.-.| @.@.@.@.@.-.@.,.@.$.@.X. .@.@.@.@.@.@.@.t J J | | | ..@.@.@.@.O.| @.@.o.| @.@.@.| ' | | | | | | ] & -.-.    . ",
"p i p 4.4.v 3.,.-.| @.@.@.| | X.@.X.@.@.O.| @.-.@.-.@.@.@.@.| | | | @...@.@.+.| | | | | | | | | | @.@.@.@.@.| | | | & -.-.  . . ",
"o C B 1.1.l 1.<.-.-.@.|  .| [ [ | @.@.@.@.@.@.| X.+. .@.@.@.| | | | | | ..| | | | | | } | O.' | @.-.@.@.@.@.@.@.@.-.h 1.1.@ @ . ",
"p B v -.-.l -.@.;.@.@.X.| | -.-.%.@.@.@.@.@...| | | @.@.@.@...| | ..@.@.| | | ' | | | @.@.@.@.@.@.#.@.@.@.@.@.-.@.@.k 1.1.@ O . ",
"i B v -.-.h -.| | | | | | | %.@.@.@.@.| @.| @.@.-.-.@.@.@.@.@.| | @.@.@.| ' | | | | @.@.@.@.@.@.@.%.&.@.@.@.@.@.@.-.l 4.4.@ O . ",
"i B h -.-.h -.-.@.@.| | | | @.@.@.@.@.| @.@.$.@.-.-.=.@.@.@.@.@.@.@.@.| @.@.@.@.X.@.O.@.@.@.@.@.| $.@.@.@.@.@.@.-.,.l 1.1.@ O . ",
"o B v -.-.= -.@.| @.X.| | +.-.#.@.@.-.-.*.| %.#.@.-.-.-.| +.| X.@.@.@.@.-.@.@.@.@.@.@.@.@.@.@.@.@.@.@.@.-.@.@.@.@.-.h 1.1.@ O . ",
"p B v ' ' & ' ' ' | | | | | @.@.*.*.-.-.-.@.@.@.-.-.-.-.-.@.@.@.@.@.@.@.@.+.@.@.@.@.@.| | X.@.@.@.@.@.| @.@.@...| -.& -.-.@ O . ",
"o N v ' ' & ' ' ' @.| | | | ..X.| @.@.$.*.$.%.@.-.-.-.,.-.@.X.@.@.@.@.@.@.@.-.@.@.X.| | | | X.X.X... .@.@.@.@.| ' @.& -.-.@ O . ",
"p v % -.-.& -.-.-.@.@.@.| | | | @.@.@.@.@.@.#.$.#.#.@.@.| @. .| | O.@.@.@.| @.@.@.@.@. .@.@.X.@.@.@.@...@.@.| ' @.-.& -.-.O O . ",
"o i . -.-.& / -.-.-.@.@.@. .| ..X.@.@.@.@.@.@.@...@.@.@.@.@...| | | | ..| @.@.@.X.@.@.@.@.@.@.@.@.| @.-.@.$.-.-.-./ & -.-.    . ",
"p o p -.-.& g -.-.-.-.-.@.| | | | @.@.@.@.@.@.@.@.@.@.@.@.@.@.@.| o.@.@.@.| O.O.| @. .@.@.@.@.@.@.@.@.-.$.-.-.-.-.g & -.-.  . . ",
"B B B -.-.g & g / -.-.-.-.| -.' ' @.@.#.@.@.@.| @.@.@.@.@.@.@.@.| | @.| #.*.@.@.@.-.@.@.@.@.@.@.@.-.-.-.@.-.-./ g & g -.-.@ @ n ",
"= v @ g -.-.g & & & g / -.| ( ) | | @.@.-.@.@.@.@.@.-.-.-.@.@.@.@.| @.@.$.*.&.@.-.-.-.-.-.-.-.-.-.-.-.-./ ~ & & & g / -.g @ @ & ",
"v = = @ g -.-.-./ g & & & & g / -.@.@.-.-.@.-.@.-.-.-.-.@.| @.@.%.-.@.| $.@.@.@.@.-.@.-.-.-.-.-./ g & & & & ~ / -.-.-.g @ @ @ + ",
"v = @ @ @ p g -.-.-.-.-./ g & & & Q _ @.-.-.%.@.-.-.@.-.-.-.-.-.-.-.-.@.@.@.@.@.-.-.-.-.-./ g & & & g / -.-.-.-.-.g p @ @ @ & h ",
"= l @ @ @ @ @ p g -.-.-.-.-.-./ g & & 0 / ` ' -.-.-.-.-.-.@.@.-.-.-.-.-.@.-.-.-.-.-./ g & & & g / -.-.-.-.-.g p @ @ @ @ @ % & v ",
"% v = v % @ % @ @ @ @ p g -.-.-.-.-./ g & & & a G ^ @.-.#.@.@.| | -.@.-.-.-.-./ g & & & g / -.-.-.-.-.g p @ @ @ @ @ @ & @ v & v ",
"% v = = % l l % @ @ @ @ @ @ p g -.-.-.-.-./ g & & & & s ~ | -.-.-.-.-./ g & & & & g / -.-.-.-.-.g p @ @ @ @ @ @ @ & v & @ % v + ",
"= l @ v % % h % = = v @ @ @ @ @ @ O p g -.-.-.-.-./ g & & & g / / g & & & g / -.-.-.-.-.g p O . . . @ @ @ @ v @ v & v & v % v & ",
"+ + + + + + + + + + + + + + + + O O     . p g -.-.-.-.-./ g & & & & g / -.-.-.-.g p + + + O O   . . @ O O + + + + + + + + + + + ",
". . . . . . . . . . . . . . . . . . .           . p g -.-.-.-.-.-.-.-.-.-.g p           .       . . . . . . . . .           . . ",
"o p o p o o o i i i i i p o o o o . . . . . . .           p g -.-.g p .           . . . . . . . . o o i i p i i i i u o u i i i ",
"p p p p p p p p p p p p p p p p p p p i o o o . .                                   . o o o i i p p p p p p p p p p p p p p p p "
};
