/* XPM */
static char *_4f5ac2e0caa418b9554e9782de8eedf5ANBU6GBEteW1RVI[] = {
/* columns rows colors chars-per-pixel */
"64 64 121 2 ",
"   c #000000",
".  c #060108",
"X  c #09020C",
"o  c #0D0311",
"O  c #110316",
"+  c #130419",
"@  c #170221",
"#  c #1B0525",
"$  c #1D0C25",
"%  c #1E0529",
"&  c #22082E",
"*  c #260434",
"=  c #260933",
"-  c #290A37",
";  c #29053A",
":  c #2D0A3B",
">  c #2F1739",
",  c #2F0541",
"<  c #310644",
"1  c #340C45",
"2  c #35054A",
"3  c #360D48",
"4  c #39094E",
"5  c #3A154A",
"6  c #3E1F4C",
"7  c #3B0653",
"8  c #3E0955",
"9  c #401F4E",
"0  c #400E56",
"q  c #41075A",
"w  c #43095C",
"e  c #44105A",
"r  c #41204F",
"t  c #432152",
"y  c #4D265E",
"u  c #460961",
"i  c #490965",
"p  c #4A0768",
"a  c #4D096B",
"s  c #50096F",
"d  c #4A1263",
"f  c #4F1269",
"g  c #51136C",
"h  c #530974",
"j  c #57097A",
"k  c #59097D",
"l  c #551471",
"z  c #581575",
"x  c #5D167C",
"c  c #582B6B",
"v  c #623077",
"b  c #67337E",
"n  c #5E0984",
"m  c #600A87",
"M  c #650C8C",
"N  c #631784",
"B  c #661888",
"V  c #6A198E",
"C  c #6B0F94",
"Z  c #6E1696",
"A  c #711A96",
"S  c #73139D",
"D  c #741B9A",
"F  c #6D268D",
"G  c #6F3788",
"H  c #72378C",
"J  c #7C3D97",
"K  c #7F3F9B",
"L  c #7614A1",
"P  c #7A16A6",
"I  c #7C1DA5",
"U  c #7D17A9",
"Y  c #7F1EA9",
"T  c #AD1F85",
"R  c #AB1F8C",
"E  c #AA1F91",
"W  c #821EAD",
"Q  c #851BB3",
"!  c #8E1FBE",
"~  c #8820B6",
"^  c #8C21BB",
"/  c #9022BF",
"(  c #A321AC",
")  c #9349B3",
"_  c #9322C4",
"`  c #9D23C0",
"'  c #9723C9",
"]  c #9A24CD",
"[  c #9D29CF",
"{  c #AF3EC9",
"}  c #A12FD2",
"|  c #A637D6",
" . c #A93FD6",
".. c #A93BD8",
"X. c #A93CD8",
"o. c #A93DD8",
"O. c #AB3FDA",
"+. c #A04FC4",
"@. c #A652CB",
"#. c #AB40DA",
"$. c #AC40DA",
"%. c #AC41DA",
"&. c #AD43DB",
"*. c #AE45DC",
"=. c #AF46DD",
"-. c #B44FE1",
";. c #B54FE1",
":. c #B753E3",
">. c #BA57E5",
",. c #B75BE0",
"<. c #B85BE1",
"1. c #BB59E5",
"2. c #BB5BE4",
"3. c #BC5AE6",
"4. c #BC5BE7",
"5. c #BD5DE6",
"6. c #BD5CE7",
"7. c #BD5DE7",
"8. c #BD5DE8",
"9. c #BE5DE8",
"0. c #BE5EE8",
/* pixels */
"0.0.0.0.0.0.0.0.0.0.0.0.0.0.0.0.0.0.0.0.0.0.0.0.0.0.0.0.0.0.0.0.0.0.0.0.0.0.0.0.0.0.0.0.0.0.0.0.0.0.0.0.0.0.0.0.0.0.0.0.0.0.0.0.",
"0.0.0.0.0.0.0.0.0.0.0.0.0.0.0.0.0.0.0.0.0.0.0.0.0.0.0.0.0.0.0.0.0.0.0.0.0.0.0.0.0.0.0.0.0.0.0.0.0.0.0.0.0.0.0.0.0.0.0.0.0.0.0.0.",
"0.0.0.0.0.0.0.0.0.0.0.0.0.0.0.0.0.0.0.0.0.0.0.0.0.0.0.0.0.0.0.0.0.0.0.0.0.0.0.0.0.0.0.0.0.0.0.0.0.0.0.0.0.0.0.0.0.0.0.0.0.0.0.0.",
"0.0.0.0.0.0.0.0.0.0.0.0.0.0.0.0.0.0.0.0.0.0.0.0.0.0.0.0.0.0.0.0.0.0.0.0.0.0.0.0.0.0.0.0.0.0.0.0.0.0.0.0.0.0.0.0.0.0.0.0.0.0.0.0.",
"0.0.0.0.0.0.0.0.0.0.0.0.0.0.0.0.0.0.0.0.0.0.0.0.0.0.0.0.0.0.0.0.0.0.0.0.0.0.0.0.0.0.0.0.0.0.0.0.0.0.0.0.0.0.0.0.0.0.0.0.0.0.0.0.",
"0.0.0.0.0.0.0.0.0.0.0.0.0.0.0.0.0.0.0.0.0.0.0.0.0.0.0.0.0.0.0.0.0.0.0.0.0.0.0.0.0.0.0.0.0.0.0.0.0.0.0.0.0.0.0.0.0.0.0.0.0.0.0.0.",
"0.0.0.0.0.0.0.0.0.0.0.0.0.0.0.0.0.0.,.) G c t 6 r 6 r t t r t t t t 6 t t r r t 9 t t t 9 y b K +.0.0.0.0.0.0.0.0.0.0.0.0.0.0.0.",
"0.0.0.0.0.0.0.0.0.0.0.0.0.0.0.0.6.<.v >                                                       o r J 6.0.0.0.0.0.0.0.0.0.0.0.0.0.",
"0.0.0.0.0.0.0.0.0.0.0.0.0.0.0.0.@.y X                                                             $ H 1.0.0.0.0.0.0.0.0.0.0.0.0.",
"&.:.1.4.6.4.>.;.=.X.&.#.#.#.#. .5 .                                                                 $ F ..=.;.>.4.6.6.0.0.0.0.0.",
"[ } | X.X.| } [ ] ] ] ] ] ] ] d .                                                                     1 W ] [ } | X.&.#.&.#.&.{ ",
"] ] ] ] ] ] ] ] ] ] ] ] ] ] A O                                                                       X B ] ] ] ] ] ] ] ] ] ] E ",
"] ] ] ] ] ] ] ] ] ] ] ] ] ~ 8                                                                           g ] ] ] ] ] ] ] ] ] ] T ",
"] ] ] ] ] ] ] ] ] ] ] ] ] D +                                                                           0 ] ] ] ] ] ] ] ] ] ] R ",
"] ] ] ] ] ] ] ] ] ] ] ] ] x .                                                                           0 ] ] ] ] ] ] ] ] ] ] ( ",
"] ] ] ] ] ] ] ] ] ] ] ] ' 1                                                                             l ] ] ] ] ] ] ] ] ] ] ` ",
"] ] ] ] ] ] ] ] ] ] ] ] ^ %                                                                           + V ] ] ] ] ] ] ] ] ] ] ' ",
"] ] ] ] ] ] ] ] ] ] ] ] Y X                                                                           8 Q ] ] ] ] ] ] ] ] ] ] ] ",
"] ] ] ] ] ] ] ] ] ] ] ] d                                                                           = D ] ] ] ] ] ] ] ] ] ] ] ] ",
"] ] ] ] ] ] ] ] ] ] ] ~ -                                                                         & V ' ] ] ] ] ] ] ] ] ] ] ] ] ",
"] ] ] ] ] ] ] ] ] ] ] A o                                                                 . o # e D ] ] ] ] ] ] ] ] ] ] ] ] ] ] ",
"] ] ] ] ] ] ] ] ] ] ] x .                             : g f f g g g f g f g f g f g f g f z N Y ^ ] ] ] ] ] ] ] ] ] ] ] ] ] ] ] ",
"] ] ] ] ] ] ] ] ] ] ] d                             O A ] ] ] ] ] ] ] ] ] ] ] ] ] ] ] ] ] ] ] ] ] ] ] ] ] ] ] ] ] ] ] ] ] ] ] ] ",
"] ] ] ] ] ] ] ] ] ] ] 0                             % _ ] ] ] ] ] ] ] ] ] ] ] ] ] ] ] ] ] ] ] ] ] ] ] ] ] ] ] ] ] ] ] ] ] ] ] ] ",
"] ] ] ] ] ] ] ] ] ] ] e                             0 ] ] ] ] ] ] ] ] ] ] ] ] ] ] ] ] ] ] ] ] ] ] ] ] ] ] ] ] ] ] ] ] ] ] ] ] ] ",
"] ] ] ] ] ] ] ] ] ] ] 0                             e ] ] ] ] ] ] ] ] ] ] ] ] ] ] ] ] ] ] ] ] ] ] ] ] ] ] ] ] ] ] ] ] ] ] ] ] ] ",
"] ] ] ] ] ] ] ] ] ] ] 0                             e ] ] ] ] ] ] ] ] ] ] ] ] ] ] ] ] ] ] ] ] ] ] ] ] ] ] ] ] ] ] ] ] ] ] ] ] ] ",
"] ] ] ] ] ] ] ] ] ] ] 0                             4 ] ] ] ] ] ] ] ] ] ] ] ] ] ] ] ] ] ] ] ] ] ] ] ] ] ] ] ] ] ] ] ] ] ] ] ] ] ",
"] ] ] ] ] ] ] ] ] ] ] e                             : ' ] ] ] ] ] ] ] ] ] ] ] ] ] ] ] ] ] ] ] ] ] ] ] ] ] ] ] ] ] ] ] ] ] ] ] ] ",
"] ] ] ] ] ] ] ] ] ] ] 0                             X A ] ] ] ] ] ] ] ] ] ] ] ] ] ] ] ] ] ] ] ] ] ] ] ] ] ] ] ] ] ] ] ] ] ] ] ] ",
"] ] ] ] ] ] ] ] ] ] ] e                               : l 0 1 3 3 3 1 3 1 1 1 3 1 8 g N Y ' ] ] ] ] ] ] ] ] ] ] ] ] ] ] ] ] ] ] ",
"] ] ] ] ] ] ] ] ] ] ] l .                                                             . : z ' ] ] ] ] ] ] ] ] ] ] ] ] ] ] ] ] ] ",
"] ] ] ] ] ] ] ] ] ] ] V .                                                                 O g / ] ] ] ] ] ] ] ] ] ] ] ] ] ] ] ] ",
"] ] ] ] ] ] ] ] ] ] ] Y :                                                                   O z ] ] ] ] ] ] ] ] ] ] ] ] ] ] ] ] ",
"] ] ] ] ] ] ] ] ] ] ] _ z .                                                                   - I ] ] ] ] ] ] ] ] ] ] ] ] ] ] ] ",
"] ] ] ] ] ] ] ] ] ] ] ] ] +                                                                   X l ] ] ] ] ] ] ] ] ] ] ] ] ] ] ] ",
"] ] ] ] ] ] ] ] ] ] ] ] ] 1                                                                     e ] ] ] ] ] ] ] ] ] ] ] ] ] ] ] ",
"] ] ] ] ] ] ] ] ] ] ] ] ] d                                                                     : ] ] ] ] ] ] ] ] ] ] ] ] ] ] ] ",
"] ] ] ] ] ] ] ] ] ] ] ] ] x                                                                     : ] ] ] ] ] ] ] ] ] ] ] ] ] ] ] ",
"] ] ] ] ] ] ] ] ] ] ] ] ] D .                                                                   d ] ] ] ] ] ] ] ] ] ] ] ] ] ] ] ",
"] ! Q U L L P P Q Q _ _ ] ~ o                                                                 o x ] ] ] ] ] ] ] ] ] ] ] ] ] ] ] ",
"m n n n n n n n n n m M M C o                                                                 : Z U P L S S S S S S S S S S S S ",
"n n n n n n n n n n n n n n @                                                               + w m n n n n n n n n n n n n n n n ",
"n n n n n n n n n n n n n n %                                                             o 7 k n n n n n n n n n n n n n n n n ",
"n n n n n n n n n n n n n n *                                                       X o * q n n n n n n n n n n n n n n n n n n ",
"n n n n n n n n n n n n n n ;                             @ < < < < < < < < < < < 2 7 p h n n n n n n n n n n n n n n n n n n n ",
"n n n n n n n n n n n n n n ;                             ; n n n n n n n n n n n n n n n n n n n n n n n n n n n n n n n n n n ",
"n n n n n n n n n n n n n n *                             * n n n n n n n n n n n n n n n n n n n n n n n n n n n n n n n n n n ",
"n n n n n n n n n n n n n n ;                             ; n n n n n n n n n n n n n n n n n n n n n n n n n n n n n n n n n n ",
"n n n n n n n n n n n n n n ;                             ; n n n n n n n n n n n n n n n n n n n n n n n n n n n n n n n n n n ",
"n n n n n n n n n n n n n n ;                             ; n n n n n n n n n n n n n n n n n n n n n n n n n n n n n n n n n n ",
"n n k h s p p a a h h k n n ;                             ; n n n n n n n n n n n n n n n n n n n n n n n n n n n n n n n n n n ",
"n h i w 8 8 8 8 8 8 w w i h ,                             , n n n n n n n n n n n n n n n n n n n n n n n n n n n n n n n n n n ",
"h w 8 8 8 8 8 8 8 8 8 8 8 8 ;                           . 7 n n n n n n n n n n n n n n n n n n n n n n n n n n n n n n n n n n ",
"w 8 8 8 8 8 8 8 8 8 8 8 8 8 , X                         o q k n n n n n n n n n n n n n n n n n n n n n n n n n n n n n n n n n ",
"8 8 8 8 8 8 8 8 8 8 8 8 8 8 4 %                         % 4 w u a h j n n n n n n n n n n n n n n n n n n k h s p i i i i i i i ",
"8 8 8 8 8 8 8 8 8 8 8 8 8 8 8 < +                     + < 8 8 8 8 8 q w w u u p h h n n n n n n n n j h i w q 8 8 8 8 8 8 8 8 8 ",
"8 8 8 8 8 8 8 8 8 8 8 8 8 8 8 8 : O                 O : 8 8 8 8 8 8 8 8 8 8 8 8 8 w w a h j h i u w 8 8 8 8 8 8 8 8 8 8 8 8 8 8 ",
"8 8 8 8 8 8 8 8 8 8 8 8 8 8 8 8 8 < % o .     . o % < 8 8 8 8 8 8 8 8 8 8 8 8 8 8 8 8 8 8 8 8 8 8 8 8 8 8 8 8 8 8 8 8 8 8 8 8 8 ",
"8 8 8 8 8 8 8 8 8 8 8 8 8 8 8 8 8 8 4 < ; * * ; < 4 8 8 8 8 8 8 8 8 8 8 8 8 8 8 8 8 8 8 8 8 8 8 8 8 8 8 8 8 8 8 8 8 8 8 8 8 8 8 ",
"8 8 8 8 8 8 8 8 8 8 8 8 8 8 8 8 8 8 8 8 8 8 8 8 8 8 8 8 8 8 8 8 8 8 8 8 8 8 8 8 8 8 8 8 8 8 8 8 8 8 8 8 8 8 8 8 8 8 8 8 8 8 8 8 ",
"8 8 8 8 8 8 8 8 8 8 8 8 8 8 8 8 8 8 8 8 8 8 8 8 8 8 8 8 8 8 8 8 8 8 8 8 8 8 8 8 8 8 8 8 8 8 8 8 8 8 8 8 8 8 8 8 8 8 8 8 8 8 8 8 ",
"8 8 8 8 8 8 8 8 8 8 8 8 8 8 8 8 8 8 8 8 8 8 8 8 8 8 8 8 8 8 8 8 8 8 8 8 8 8 8 8 8 8 8 8 8 8 8 8 8 8 8 8 8 8 8 8 8 8 8 8 8 8 8 8 ",
"8 8 8 8 8 8 8 8 8 8 8 8 8 8 8 8 8 8 8 8 8 8 8 8 8 8 8 8 8 8 8 8 8 8 8 8 8 8 8 8 8 8 8 8 8 8 8 8 8 8 8 8 8 8 8 8 8 8 8 8 8 8 8 8 "
};
